<svg width="1024" height="384" viewBox="128 128 1024 384" fill="none" xmlns="http://www.w3.org/2000/svg" role="img" aria-labelledby="logo-title logo-description">
  <title id="logo-title">Go SCREAM Template</title>
  <desc id="logo-description">A blue Go gopher with round ears, wide eyes, and two front teeth beside three left-aligned lines: Go, SCREAM, and Template.</desc>

  <g stroke="#19343D" stroke-width="6" stroke-linecap="round" stroke-linejoin="round">
    <!-- Round ears, little paws, and feet give the gopher its silhouette. -->
    <circle cx="284" cy="239" r="29" fill="#7FD5EA"/>
    <circle cx="452" cy="239" r="29" fill="#7FD5EA"/>
    <circle cx="284" cy="239" r="12" fill="#D4F2F8" stroke="none"/>
    <circle cx="452" cy="239" r="12" fill="#D4F2F8" stroke="none"/>
    <path d="M281 354C249 351 242 370 253 381C260 388 271 382 285 373" fill="#EBCDAA"/>
    <path d="M455 354C487 351 494 370 483 381C476 388 465 382 451 373" fill="#EBCDAA"/>
    <path d="M312 437C297 450 294 466 305 471C316 476 331 468 339 450" fill="#EBCDAA"/>
    <path d="M424 437C439 450 442 466 431 471C420 476 405 468 397 450" fill="#EBCDAA"/>

    <path d="M368 214C304 214 274 246 274 299V385C274 437 308 455 368 455C428 455 462 437 462 385V299C462 246 432 214 368 214Z" fill="#7FD5EA"/>
    <ellipse cx="322" cy="291" rx="43" ry="47" fill="white"/>
    <ellipse cx="414" cy="291" rx="43" ry="47" fill="white"/>
    <ellipse cx="333" cy="296" rx="13" ry="17" fill="#19343D" stroke="none"/>
    <ellipse cx="425" cy="296" rx="13" ry="17" fill="#19343D" stroke="none"/>
    <circle cx="337" cy="290" r="4" fill="white" stroke="none"/>
    <circle cx="429" cy="290" r="4" fill="white" stroke="none"/>

    <!-- The gopher's muzzle and paired incisors. -->
    <path d="M349 349H368V373C368 382 349 382 349 373Z" fill="white" stroke-width="4"/>
    <path d="M368 349H387V373C387 382 368 382 368 373Z" fill="white" stroke-width="4"/>
    <ellipse cx="368" cy="341" rx="30" ry="18" fill="#EBCDAA" stroke-width="4"/>
    <path d="M355 329C355 319 381 319 381 329C381 336 373 340 368 340C363 340 355 336 355 329Z" fill="#19343D" stroke="none"/>
  </g>

  <g fill="#58BFD9" font-family="'Noto Sans', 'DejaVu Sans', Arial, sans-serif" text-anchor="start">
    <text x="525" y="282" font-size="64" font-weight="700" letter-spacing="1">Go</text>
    <text x="525" y="359" font-size="64" font-weight="700" letter-spacing="1">SCREAM</text>
    <text x="525" y="436" font-size="58" font-weight="700" letter-spacing="2">Template</text>
  </g>
</svg>
